<svg width="70" height="70" viewBox="0 0 70 70" fill="none" xmlns="http://www.w3.org/2000/svg">
<path d="M35 1.09375C16.3037 1.09375 1.09375 16.3037 1.09375 35C1.09375 53.6963 16.3037 68.9062 35 68.9062C53.6963 68.9062 68.9062 53.6963 68.9062 35C68.9062 16.3037 53.6963 1.09375 35 1.09375ZM7.65625 35C7.65625 19.9225 19.9225 7.65625 35 7.65625C41.3586 7.65625 47.2027 9.85644 51.8521 13.5105L13.5105 51.8519C9.85644 47.2024 7.65625 41.3586 7.65625 35ZM35 62.3438C28.6414 62.3438 22.7973 60.1436 18.1479 56.4895L56.4895 18.1479C60.1436 22.7973 62.3438 28.6414 62.3438 35C62.3438 50.0775 50.0775 62.3438 35 62.3438Z" fill="#E3E3E3"/>
</svg>
