<svg width="30" height="30" viewBox="0 0 30 30" fill="none" xmlns="http://www.w3.org/2000/svg">
<g clip-path="url(#clip0_184_6)">
<path d="M28.3398 0C28.7956 0 29.1862 0.16276 29.5117 0.488281C29.8372 0.813802 30 1.20443 30 1.66016V28.3398C30 28.7956 29.8372 29.1862 29.5117 29.5117C29.1862 29.8372 28.7956 30 28.3398 30H20.7031V18.3789H24.5898L25.1758 13.8477H20.7031V10.957C20.7031 10.2279 20.8561 9.68099 21.1621 9.31641C21.4681 8.95182 22.0638 8.76953 22.9492 8.76953L25.332 8.75V4.70703C24.5117 4.58984 23.3529 4.53125 21.8555 4.53125C20.0846 4.53125 18.6686 5.05208 17.6074 6.09375C16.5462 7.13542 16.0156 8.60677 16.0156 10.5078V13.8477H12.1094V18.3789H16.0156V30H1.66016C1.20443 30 0.813802 29.8372 0.488281 29.5117C0.16276 29.1862 0 28.7956 0 28.3398V1.66016C0 1.20443 0.16276 0.813802 0.488281 0.488281C0.813802 0.16276 1.20443 0 1.66016 0H28.3398Z" fill="#FFC300"/>
</g>
<defs>
<clipPath id="clip0_184_6">
<rect width="30" height="30" fill="white"/>
</clipPath>
</defs>
</svg>
