<svg width="50" height="50" viewBox="0 0 50 50" fill="none" xmlns="http://www.w3.org/2000/svg">
<path d="M35.9584 19.1564C34.2709 16.1668 32.6146 13.6877 32.5417 13.5835L31.6979 12.3127L30.8438 13.5418C30.7917 13.6252 29.6563 15.3127 28.3229 17.5627C28.2991 17.5119 28.2713 17.4631 28.2396 17.4168C25.625 12.8127 22.9167 8.8335 22.9167 8.79183L22.0834 7.521L21.2396 8.79183C21.2396 8.79183 18.5521 12.8127 15.9271 17.4585C12.3438 23.8022 10.5313 28.3335 10.5313 30.9168C10.526 33.5608 11.4279 36.1266 13.0864 38.1858C14.7449 40.245 17.0595 41.673 19.6439 42.2313C22.2283 42.7896 24.926 42.4445 27.2866 41.2536C29.6473 40.0627 31.5279 38.098 32.6146 35.6877C34.5021 35.4589 36.2408 34.5479 37.5033 33.1262C38.7657 31.7045 39.4648 29.8702 39.4688 27.9689C39.4688 26.2189 38.3229 23.3335 35.9584 19.1564ZM22.0834 40.4272C19.5619 40.4245 17.1445 39.4216 15.3615 37.6387C13.5786 35.8557 12.5757 33.4383 12.5729 30.9168C12.5729 26.8022 18.8229 16.3335 22.0834 11.2293C23.4688 13.3752 25.3854 16.4897 27.1354 19.6772C25 23.5731 23.9584 26.2918 23.9584 27.9689C23.9619 29.7962 24.6075 31.564 25.7823 32.9636C26.9571 34.3631 28.5864 35.3052 30.3854 35.6252C29.5512 37.0894 28.3428 38.3056 26.8841 39.1494C25.4253 39.9931 23.7685 40.4341 22.0834 40.4272ZM33.3334 33.4377C32.7934 33.6036 32.2316 33.6879 31.6667 33.6877C31.4967 33.6983 31.3262 33.6983 31.1563 33.6877C29.7351 33.5556 28.4141 32.8987 27.4511 31.8451C26.4881 30.7916 25.9522 29.4171 25.9479 27.9897C25.9479 26.6772 26.9896 24.3127 28.2709 21.8752C28.6459 21.1564 29.0521 20.4272 29.4584 19.7189C30.2292 18.3543 31.0209 17.0731 31.6771 16.0522C32.3125 17.0939 33.2396 18.5522 34.1563 20.2189C36.9792 25.2085 37.4063 27.2502 37.4063 28.021C37.3918 29.2397 36.9891 30.422 36.2566 31.3961C35.5241 32.3703 34.5001 33.0854 33.3334 33.4377Z" fill="#FFC300"/>
</svg>
