<svg width="45" height="45" viewBox="0 0 45 45" fill="none" xmlns="http://www.w3.org/2000/svg">
<mask id="path-1-inside-1_55_15" fill="white">
<path d="M42.7555 38.0381C42.4058 38.0381 42.1226 37.7547 42.1226 37.4052C42.1226 18.4116 26.6685 2.95916 7.67278 2.95916C7.32315 2.95916 7.03979 2.6758 7.03979 2.32626C7.03979 1.97672 7.32315 1.69336 7.67278 1.69336C12.4948 1.69336 17.1726 2.63766 21.5764 4.50006C25.8296 6.29883 29.649 8.87376 32.9287 12.1533C36.2082 15.4328 38.7832 19.2519 40.5818 23.5045C42.4441 27.9075 43.3884 32.5845 43.3884 37.4052C43.3884 37.7547 43.105 38.0381 42.7555 38.0381Z"/>
</mask>
<path d="M42.7555 38.0381C42.4058 38.0381 42.1226 37.7547 42.1226 37.4052C42.1226 18.4116 26.6685 2.95916 7.67278 2.95916C7.32315 2.95916 7.03979 2.6758 7.03979 2.32626C7.03979 1.97672 7.32315 1.69336 7.67278 1.69336C12.4948 1.69336 17.1726 2.63766 21.5764 4.50006C25.8296 6.29883 29.649 8.87376 32.9287 12.1533C36.2082 15.4328 38.7832 19.2519 40.5818 23.5045C42.4441 27.9075 43.3884 32.5845 43.3884 37.4052C43.3884 37.7547 43.105 38.0381 42.7555 38.0381Z" fill="#FFC300"/>
<path d="M21.5764 4.50006L22.3554 2.65802L22.3554 2.65802L21.5764 4.50006ZM32.9287 12.1533L31.5145 13.5675L32.9287 12.1533ZM40.5818 23.5045L42.4239 22.7254L42.4239 22.7254L40.5818 23.5045ZM42.7555 36.0381C43.5106 36.0381 44.1226 36.6503 44.1226 37.4052H40.1226C40.1226 38.8591 41.3011 40.0381 42.7555 40.0381V36.0381ZM44.1226 37.4052C44.1226 17.3069 27.7729 0.95916 7.67278 0.95916V4.95916C25.5641 4.95916 40.1226 19.5164 40.1226 37.4052H44.1226ZM7.67278 0.95916C8.42754 0.95916 9.03979 1.57105 9.03979 2.32626H5.03979C5.03979 3.78055 6.21877 4.95916 7.67278 4.95916V0.95916ZM9.03979 2.32626C9.03979 3.08147 8.42754 3.69336 7.67278 3.69336V-0.306641C6.21877 -0.306641 5.03979 0.871967 5.03979 2.32626H9.03979ZM7.67278 3.69336C12.2295 3.69336 16.6422 4.58485 20.7974 6.3421L22.3554 2.65802C17.703 0.690461 12.7601 -0.306641 7.67278 -0.306641V3.69336ZM20.7973 6.3421C24.8122 8.04006 28.4162 10.4694 31.5145 13.5675L34.3429 10.7391C30.8819 7.27816 26.847 4.5576 22.3554 2.65802L20.7973 6.3421ZM31.5145 13.5675C34.6127 16.6657 37.042 20.2694 38.7398 24.2836L42.4239 22.7254C40.5243 18.2344 37.8038 14.1999 34.3429 10.7391L31.5145 13.5675ZM38.7398 24.2835C40.4969 28.438 41.3884 32.8498 41.3884 37.4052H45.3884C45.3884 32.3191 44.3912 27.3771 42.4239 22.7254L38.7398 24.2835ZM41.3884 37.4052C41.3884 36.6501 42.0004 36.0381 42.7555 36.0381V40.0381C44.2096 40.0381 45.3884 38.8593 45.3884 37.4052H41.3884Z" fill="#FFC300" mask="url(#path-1-inside-1_55_15)"/>
<mask id="path-3-inside-2_55_15" fill="white">
<path d="M35.3197 38.0385C34.97 38.0385 34.6868 37.7551 34.6868 37.4056C34.6868 22.5091 22.5683 10.3898 7.67278 10.3898C7.32315 10.3898 7.03979 10.1065 7.03979 9.75692C7.03979 9.40738 7.32315 9.12402 7.67278 9.12402C15.2279 9.12402 22.3302 12.0661 27.6712 17.4083C33.0117 22.7497 35.9526 29.8516 35.9526 37.4056C35.9526 37.7551 35.6693 38.0385 35.3197 38.0385Z"/>
</mask>
<path d="M35.3197 38.0385C34.97 38.0385 34.6868 37.7551 34.6868 37.4056C34.6868 22.5091 22.5683 10.3898 7.67278 10.3898C7.32315 10.3898 7.03979 10.1065 7.03979 9.75692C7.03979 9.40738 7.32315 9.12402 7.67278 9.12402C15.2279 9.12402 22.3302 12.0661 27.6712 17.4083C33.0117 22.7497 35.9526 29.8516 35.9526 37.4056C35.9526 37.7551 35.6693 38.0385 35.3197 38.0385Z" fill="#FFC300"/>
<path d="M27.6712 17.4083L26.2569 18.8224L26.2569 18.8224L27.6712 17.4083ZM35.3197 36.0385C36.0748 36.0385 36.6868 36.6507 36.6868 37.4056H32.6868C32.6868 38.8595 33.8653 40.0385 35.3197 40.0385V36.0385ZM36.6868 37.4056C36.6868 21.4046 23.673 8.38982 7.67278 8.38982V12.3898C21.4636 12.3898 32.6868 23.6135 32.6868 37.4056H36.6868ZM7.67278 8.38982C8.42754 8.38982 9.03979 9.00171 9.03979 9.75692H5.03979C5.03979 11.2112 6.21877 12.3898 7.67278 12.3898V8.38982ZM9.03979 9.75692C9.03979 10.5121 8.42754 11.124 7.67278 11.124V7.12402C6.21877 7.12402 5.03979 8.30263 5.03979 9.75692H9.03979ZM7.67278 11.124C14.6975 11.124 21.291 13.8554 26.2569 18.8224L29.0856 15.9943C23.3694 10.2768 15.7584 7.12402 7.67278 7.12402V11.124ZM26.2569 18.8224C31.2222 23.7887 33.9526 30.3819 33.9526 37.4056H37.9526C37.9526 29.3213 34.8011 21.7107 29.0856 15.9942L26.2569 18.8224ZM33.9526 37.4056C33.9526 36.6504 34.5649 36.0385 35.3197 36.0385V40.0385C36.7737 40.0385 37.9526 38.8598 37.9526 37.4056H33.9526Z" fill="#FFC300" mask="url(#path-3-inside-2_55_15)"/>
<path d="M27.5237 37.4054C27.5237 37.4054 27.5237 37.4054 27.5237 37.4053V37.4054Z" fill="#FFC300" stroke="#FFC300" stroke-width="2"/>
<mask id="path-6-inside-3_55_15" fill="white">
<path d="M20.455 38.0381C20.1053 38.0381 19.822 37.7547 19.822 37.4052C19.822 30.709 14.3718 25.2614 7.67268 25.2614C7.32305 25.2614 7.03969 24.978 7.03969 24.6285C7.03969 24.279 7.32305 23.9956 7.67268 23.9956C15.0698 23.9956 21.0879 30.0111 21.0879 37.4052C21.0879 37.7547 20.8046 38.0381 20.455 38.0381ZM7.67276 43.3887C4.37607 43.3887 1.69409 40.7045 1.69409 37.4052C1.69409 34.1082 4.37616 31.4261 7.67276 31.4261C10.9694 31.4261 13.6514 34.1083 13.6514 37.4052C13.6514 40.7045 10.9695 43.3887 7.67276 43.3887ZM7.67276 32.6919C5.0741 32.6919 2.95998 34.8063 2.95998 37.4052C2.95998 40.0066 5.0741 42.1229 7.67276 42.1229C10.2713 42.1229 12.3855 40.0066 12.3855 37.4052C12.3855 34.8063 10.2714 32.6919 7.67276 32.6919Z"/>
</mask>
<path d="M20.455 38.0381C20.1053 38.0381 19.822 37.7547 19.822 37.4052C19.822 30.709 14.3718 25.2614 7.67268 25.2614C7.32305 25.2614 7.03969 24.978 7.03969 24.6285C7.03969 24.279 7.32305 23.9956 7.67268 23.9956C15.0698 23.9956 21.0879 30.0111 21.0879 37.4052C21.0879 37.7547 20.8046 38.0381 20.455 38.0381ZM7.67276 43.3887C4.37607 43.3887 1.69409 40.7045 1.69409 37.4052C1.69409 34.1082 4.37616 31.4261 7.67276 31.4261C10.9694 31.4261 13.6514 34.1083 13.6514 37.4052C13.6514 40.7045 10.9695 43.3887 7.67276 43.3887ZM7.67276 32.6919C5.0741 32.6919 2.95998 34.8063 2.95998 37.4052C2.95998 40.0066 5.0741 42.1229 7.67276 42.1229C10.2713 42.1229 12.3855 40.0066 12.3855 37.4052C12.3855 34.8063 10.2714 32.6919 7.67276 32.6919Z" fill="#FFC300"/>
<path d="M21.0879 37.4052H19.0879V37.4057L21.0879 37.4052ZM12.3855 37.4052H14.3855H12.3855ZM20.455 36.0381C21.2097 36.0381 21.822 36.65 21.822 37.4052H17.822C17.822 38.8595 19.0009 40.0381 20.455 40.0381V36.0381ZM21.822 37.4052C21.822 29.6036 15.4755 23.2614 7.67268 23.2614V27.2614C13.2681 27.2614 17.822 31.8145 17.822 37.4052H21.822ZM7.67268 23.2614C8.42743 23.2614 9.03969 23.8733 9.03969 24.6285H5.03969C5.03969 26.0828 6.21866 27.2614 7.67268 27.2614V23.2614ZM9.03969 24.6285C9.03969 25.3837 8.42743 25.9956 7.67268 25.9956V21.9956C6.21866 21.9956 5.03969 23.1742 5.03969 24.6285H9.03969ZM7.67268 25.9956C13.966 25.9956 19.0879 31.1165 19.0879 37.4052H23.0879C23.0879 28.9057 16.1736 21.9956 7.67268 21.9956V25.9956ZM19.0879 37.4057C19.0877 36.65 19.7003 36.0381 20.455 36.0381V40.0381C21.9089 40.0381 23.0882 38.8594 23.0879 37.4047L19.0879 37.4057ZM7.67276 41.3887C5.48217 41.3887 3.69409 39.6015 3.69409 37.4052H-0.305908C-0.305908 41.8075 3.26997 45.3887 7.67276 45.3887V41.3887ZM3.69409 37.4052C3.69409 35.2127 5.48085 33.4261 7.67276 33.4261V29.4261C3.27148 29.4261 -0.305908 33.0038 -0.305908 37.4052H3.69409ZM7.67276 33.4261C9.86466 33.4261 11.6514 35.2127 11.6514 37.4052H15.6514C15.6514 33.0039 12.0741 29.4261 7.67276 29.4261V33.4261ZM11.6514 37.4052C11.6514 39.6015 9.86335 41.3887 7.67276 41.3887V45.3887C12.0756 45.3887 15.6514 41.8075 15.6514 37.4052H11.6514ZM7.67276 30.6919C3.96929 30.6919 0.959981 33.702 0.959981 37.4052H4.95998C4.95998 35.9107 6.17891 34.6919 7.67276 34.6919V30.6919ZM0.959981 37.4052C0.959981 41.1092 3.96757 44.1229 7.67276 44.1229V40.1229C6.18064 40.1229 4.95998 38.9039 4.95998 37.4052H0.959981ZM7.67276 44.1229C11.3778 44.1229 14.3855 41.1092 14.3855 37.4052H10.3855C10.3855 38.9039 9.16483 40.1229 7.67276 40.1229V44.1229ZM14.3855 37.4052C14.3855 33.702 11.3762 30.6919 7.67276 30.6919V34.6919C9.16661 34.6919 10.3855 35.9107 10.3855 37.4052H14.3855Z" fill="#FFC300" mask="url(#path-6-inside-3_55_15)"/>
</svg>
