<svg width="50" height="50" viewBox="0 0 50 50" fill="none" xmlns="http://www.w3.org/2000/svg">
    <g clip-path="url(#clip0_45_203)">
        <path d="M12.5 7.42168H17.0536C16.9807 7.546 16.9438 7.6881 16.9469 7.83216C16.9501 7.97623 16.9931 8.11659 17.0713 8.23763C17.1862 8.40892 17.3633 8.52874 17.5651 8.57168C17.7668 8.61463 17.9773 8.57732 18.152 8.46767L19.9568 7.29579C20.066 7.22484 20.1557 7.12772 20.2178 7.01327C20.2799 6.89882 20.3125 6.77065 20.3125 6.64043C20.3125 6.5102 20.2799 6.38204 20.2178 6.26759C20.1557 6.15313 20.066 6.05602 19.9568 5.98506L18.152 4.81319C18.005 4.71721 17.8299 4.67369 17.6551 4.6897C17.4802 4.7057 17.3159 4.78028 17.1888 4.90136C17.0616 5.02243 16.9791 5.1829 16.9545 5.35675C16.93 5.5306 16.9649 5.70764 17.0536 5.85918H12.5C12.2928 5.85918 12.0941 5.94149 11.9476 6.088C11.8011 6.23451 11.7188 6.43323 11.7188 6.64043C11.7188 6.84763 11.8011 7.04634 11.9476 7.19285C12.0941 7.33937 12.2928 7.42168 12.5 7.42168V7.42168ZM31.6406 7.42168H36.1942C36.1213 7.54597 36.0843 7.68807 36.0874 7.83214C36.0905 7.97621 36.1336 8.11659 36.2118 8.23763C36.3259 8.40981 36.5031 8.53035 36.7051 8.57336C36.9072 8.61637 37.1181 8.57843 37.2925 8.46767L39.0972 7.29579C39.2065 7.22488 39.2963 7.12777 39.3584 7.01331C39.4206 6.89886 39.4531 6.77068 39.4531 6.64043C39.4531 6.51018 39.4206 6.382 39.3584 6.26754C39.2963 6.15308 39.2065 6.05598 39.0972 5.98506L37.2925 4.81319C37.1455 4.71718 36.9704 4.67365 36.7955 4.68964C36.6207 4.70564 36.4563 4.78023 36.3292 4.90132C36.2021 5.02242 36.1195 5.1829 36.095 5.35677C36.0705 5.53063 36.1055 5.70767 36.1942 5.85918H31.6406C31.4334 5.85918 31.2347 5.94149 31.0882 6.088C30.9417 6.23451 30.8594 6.43323 30.8594 6.64043C30.8594 6.84763 30.9417 7.04634 31.0882 7.19285C31.2347 7.33937 31.4334 7.42168 31.6406 7.42168ZM39.0972 42.7038L37.2925 41.5319C37.1455 41.4359 36.9704 41.3924 36.7955 41.4084C36.6207 41.4244 36.4563 41.499 36.3292 41.6201C36.2021 41.7412 36.1195 41.9017 36.095 42.0755C36.0705 42.2494 36.1055 42.4264 36.1942 42.5779H31.6406C31.4334 42.5779 31.2347 42.6602 31.0882 42.8067C30.9417 42.9533 30.8594 43.152 30.8594 43.3592C30.8594 43.5664 30.9417 43.7651 31.0882 43.9116C31.2347 44.0581 31.4334 44.1404 31.6406 44.1404H36.1942C36.1059 44.292 36.0713 44.4688 36.096 44.6425C36.1207 44.8161 36.2032 44.9763 36.3302 45.0973C36.4572 45.2182 36.6212 45.2928 36.7958 45.309C36.9705 45.3252 37.1454 45.282 37.2925 45.1864L39.0972 44.0145C39.2065 43.9436 39.2962 43.8465 39.3584 43.7321C39.4206 43.6176 39.4531 43.4894 39.4531 43.3592C39.4531 43.2289 39.4206 43.1007 39.3584 42.9863C39.2962 42.8718 39.2065 42.7747 39.0972 42.7038V42.7038ZM19.9568 42.7038L18.152 41.5319C18.005 41.4359 17.8299 41.3924 17.6551 41.4084C17.4802 41.4244 17.3159 41.499 17.1887 41.6201C17.0616 41.7412 16.9791 41.9016 16.9545 42.0755C16.93 42.2493 16.9649 42.4264 17.0536 42.5779H12.5C12.2928 42.5779 12.0941 42.6602 11.9476 42.8068C11.8011 42.9533 11.7188 43.152 11.7188 43.3592C11.7188 43.5664 11.8011 43.7651 11.9476 43.9116C12.0941 44.0581 12.2928 44.1404 12.5 44.1404H17.0536C16.9653 44.292 16.9307 44.4689 16.9554 44.6425C16.9801 44.8161 17.0627 44.9763 17.1897 45.0973C17.3167 45.2182 17.4807 45.2928 17.6554 45.309C17.83 45.3252 18.005 45.282 18.152 45.1864L19.9568 44.0145C20.066 43.9436 20.1557 43.8465 20.2178 43.732C20.2799 43.6176 20.3125 43.4894 20.3125 43.3592C20.3125 43.229 20.2799 43.1008 20.2178 42.9863C20.1557 42.8719 20.066 42.7748 19.9568 42.7038H19.9568ZM13.6719 22.2654H29.6352C29.8638 22.2657 30.0886 22.2072 30.288 22.0955C30.4874 21.9838 30.6548 21.8227 30.7739 21.6276C32.9841 21.4235 36.3708 20.6652 37.7872 18.0063C37.8856 17.7298 37.8858 17.4278 37.788 17.1511C36.3724 14.4937 32.991 13.7339 30.7808 13.529C30.6602 13.3337 30.4916 13.1725 30.2911 13.0607C30.0906 12.949 29.8648 12.8903 29.6352 12.8904H13.6719C13.6715 12.5797 13.548 12.2819 13.3283 12.0622C13.1086 11.8425 12.8107 11.7189 12.5 11.7186H10.1562C9.84555 11.7189 9.54768 11.8425 9.32798 12.0622C9.10829 12.2819 8.98471 12.5797 8.98438 12.8904V22.2654C8.98471 22.5761 9.10829 22.874 9.32798 23.0937C9.54768 23.3134 9.84555 23.437 10.1562 23.4373H12.5C12.8107 23.437 13.1086 23.3134 13.3283 23.0937C13.548 22.874 13.6715 22.5761 13.6719 22.2654ZM29.2969 14.4529V16.7967C29.2969 17.0039 29.3792 17.2026 29.5257 17.3491C29.6722 17.4956 29.8709 17.5779 30.0781 17.5779C30.2853 17.5779 30.484 17.4956 30.6306 17.3491C30.7771 17.2026 30.8594 17.0039 30.8594 16.7967V15.1091C32.4619 15.2856 35.0551 15.8394 36.224 17.5779C35.0551 19.3164 32.4619 19.8702 30.8594 20.0467V19.5311C30.8594 19.3239 30.7771 19.1251 30.6306 18.9786C30.484 18.8321 30.2853 18.7498 30.0781 18.7498C29.8709 18.7498 29.6722 18.8321 29.5257 18.9786C29.3792 19.1251 29.2969 19.3239 29.2969 19.5311V20.7029H13.6719V14.4529H29.2969ZM12.1094 21.8748H10.5469V13.2811H12.1094V21.8748Z" fill="#FFC300"/>
        <path d="M17.9688 17.578H23.4375C23.6447 17.578 23.8434 17.4957 23.9899 17.3492C24.1364 17.2027 24.2188 17.004 24.2188 16.7968C24.2188 16.5896 24.1364 16.3908 23.9899 16.2443C23.8434 16.0978 23.6447 16.0155 23.4375 16.0155H17.9688C17.7615 16.0155 17.5628 16.0978 17.4163 16.2443C17.2698 16.3908 17.1875 16.5896 17.1875 16.7968C17.1875 17.004 17.2698 17.2027 17.4163 17.3492C17.5628 17.4957 17.7615 17.578 17.9688 17.578ZM6.64062 13.6718H4.6875C4.4803 13.6718 4.28159 13.7541 4.13507 13.9006C3.98856 14.0471 3.90625 14.2458 3.90625 14.453C3.90625 14.6602 3.98856 14.8589 4.13507 15.0054C4.28159 15.1519 4.4803 15.2343 4.6875 15.2343H6.64062C6.84783 15.2343 7.04654 15.1519 7.19305 15.0054C7.33956 14.8589 7.42188 14.6602 7.42188 14.453C7.42188 14.2458 7.33956 14.0471 7.19305 13.9006C7.04654 13.7541 6.84783 13.6718 6.64062 13.6718ZM6.64062 19.9218H4.6875C4.4803 19.9218 4.28159 20.0041 4.13507 20.1506C3.98856 20.2971 3.90625 20.4958 3.90625 20.703C3.90625 20.9102 3.98856 21.1089 4.13507 21.2554C4.28159 21.4019 4.4803 21.4843 4.6875 21.4843H6.64062C6.84783 21.4843 7.04654 21.4019 7.19305 21.2554C7.33956 21.1089 7.42188 20.9102 7.42188 20.703C7.42188 20.4958 7.33956 20.2971 7.19305 20.1506C7.04654 20.0041 6.84783 19.9218 6.64062 19.9218ZM6.64062 16.7968H0.78125C0.57405 16.7968 0.375336 16.8791 0.228823 17.0256C0.08231 17.1721 0 17.3708 0 17.578C0 17.7852 0.08231 17.9839 0.228823 18.1304C0.375336 18.2769 0.57405 18.3593 0.78125 18.3593H6.64062C6.84783 18.3593 7.04654 18.2769 7.19305 18.1304C7.33956 17.9839 7.42188 17.7852 7.42188 17.578C7.42188 17.3708 7.33956 17.1721 7.19305 17.0256C7.04654 16.8791 6.84783 16.7968 6.64062 16.7968ZM49.9725 32.2028C49.9527 32.1317 49.9275 32.0622 49.8974 31.9949C48.4818 29.3376 45.1004 28.5777 42.8902 28.3728C42.7695 28.1775 42.6009 28.0163 42.4004 27.9046C42.1999 27.7928 41.9742 27.7342 41.7446 27.7342H25.7812C25.7809 27.4236 25.6573 27.1257 25.4376 26.906C25.2179 26.6863 24.9201 26.5627 24.6094 26.5624H22.2656C21.9549 26.5627 21.6571 26.6863 21.4374 26.906C21.2177 27.1257 21.0941 27.4236 21.0938 27.7342V37.1092C21.0941 37.4199 21.2177 37.7178 21.4374 37.9375C21.6571 38.1572 21.9549 38.2808 22.2656 38.2811H24.6094C24.9201 38.2808 25.2179 38.1572 25.4376 37.9375C25.6573 37.7178 25.7809 37.4199 25.7812 37.1092H41.7446C41.9732 37.1095 42.198 37.051 42.3974 36.9393C42.5968 36.8276 42.7641 36.6665 42.8833 36.4714C45.0935 36.2673 48.4802 35.509 49.8966 32.8501C50.0003 32.6509 50.0274 32.4206 49.9725 32.2028ZM24.2188 36.7186H22.6562V28.1249H24.2188V36.7186ZM42.9688 34.8905V34.3749C42.9688 34.1677 42.8864 33.969 42.7399 33.8225C42.5934 33.6759 42.3947 33.5936 42.1875 33.5936C41.9803 33.5936 41.7816 33.6759 41.6351 33.8225C41.4886 33.969 41.4062 34.1677 41.4062 34.3749V35.5468H25.7812V29.2968H41.4062V31.6405C41.4062 31.8477 41.4886 32.0464 41.6351 32.1929C41.7816 32.3394 41.9803 32.4218 42.1875 32.4218C42.3947 32.4218 42.5934 32.3394 42.7399 32.1929C42.8864 32.0464 42.9688 31.8477 42.9688 31.6405V29.953C44.5713 30.1295 47.1645 30.6833 48.3334 32.4218C47.1644 34.1603 44.5713 34.714 42.9688 34.8905V34.8905Z" fill="#FFC300"/>
        <path d="M35.5469 30.8593H30.0781C29.8709 30.8593 29.6722 30.9416 29.5257 31.0881C29.3792 31.2346 29.2969 31.4333 29.2969 31.6405C29.2969 31.8477 29.3792 32.0464 29.5257 32.1929C29.6722 32.3394 29.8709 32.4218 30.0781 32.4218H35.5469C35.7541 32.4218 35.9528 32.3394 36.0993 32.1929C36.2458 32.0464 36.3281 31.8477 36.3281 31.6405C36.3281 31.4333 36.2458 31.2346 36.0993 31.0881C35.9528 30.9416 35.7541 30.8593 35.5469 30.8593ZM18.75 28.5155H16.7969C16.5897 28.5155 16.391 28.5978 16.2444 28.7443C16.0979 28.8908 16.0156 29.0896 16.0156 29.2968C16.0156 29.504 16.0979 29.7027 16.2444 29.8492C16.391 29.9957 16.5897 30.078 16.7969 30.078H18.75C18.9572 30.078 19.1559 29.9957 19.3024 29.8492C19.4489 29.7027 19.5312 29.504 19.5312 29.2968C19.5312 29.0896 19.4489 28.8908 19.3024 28.7443C19.1559 28.5978 18.9572 28.5155 18.75 28.5155ZM18.75 34.7655H16.7969C16.5897 34.7655 16.391 34.8478 16.2444 34.9943C16.0979 35.1408 16.0156 35.3396 16.0156 35.5468C16.0156 35.754 16.0979 35.9527 16.2444 36.0992C16.391 36.2457 16.5897 36.328 16.7969 36.328H18.75C18.9572 36.328 19.1559 36.2457 19.3024 36.0992C19.4489 35.9527 19.5312 35.754 19.5312 35.5468C19.5312 35.3396 19.4489 35.1408 19.3024 34.9943C19.1559 34.8478 18.9572 34.7655 18.75 34.7655ZM18.75 31.6405H12.8906C12.6834 31.6405 12.4847 31.7228 12.3382 31.8693C12.1917 32.0158 12.1094 32.2146 12.1094 32.4218C12.1094 32.629 12.1917 32.8277 12.3382 32.9742C12.4847 33.1207 12.6834 33.203 12.8906 33.203H18.75C18.9572 33.203 19.1559 33.1207 19.3024 32.9742C19.4489 32.8277 19.5312 32.629 19.5312 32.4218C19.5312 32.2146 19.4489 32.0158 19.3024 31.8693C19.1559 31.7228 18.9572 31.6405 18.75 31.6405Z" fill="#FFC300"/>
    </g>
    <defs>
        <clipPath id="clip0_45_203">
            <rect width="50" height="50" fill="white"/>
        </clipPath>
    </defs>
</svg>
