<svg width="50" height="50" viewBox="0 0 50 50" fill="none" xmlns="http://www.w3.org/2000/svg">
<path d="M17.9688 4.6875C16.6766 4.6875 15.625 5.73906 15.625 7.03125V14.0625H11.7188C10.4266 14.0625 9.375 15.1141 9.375 16.4062V23.114C9.375 26.0062 11.108 28.5683 13.7939 29.6417L16.6962 30.8014C16.9946 30.9201 17.1875 31.2074 17.1875 31.5277V35.1562C17.1875 36.4484 18.2391 37.5 19.5312 37.5H21.0938V39.8438C21.0938 40.275 21.4438 40.625 21.875 40.625H22.6562V44.5312C22.6562 44.9625 23.0063 45.3125 23.4375 45.3125H26.5625C26.9937 45.3125 27.3438 44.9625 27.3438 44.5312V40.625H28.125C28.5562 40.625 28.9062 40.275 28.9062 39.8438V37.5H30.4688C31.7609 37.5 32.8125 36.4484 32.8125 35.1562V31.5277C32.8125 31.2058 33.007 30.9201 33.3038 30.8014L36.2061 29.6417C38.892 28.5683 40.625 26.0062 40.625 23.114V16.4062C40.625 15.1141 39.5734 14.0625 38.2812 14.0625H34.375V7.03125C34.375 5.73906 33.3234 4.6875 32.0312 4.6875C30.7391 4.6875 29.6875 5.73906 29.6875 7.03125V14.0625H20.3125V7.03125C20.3125 5.73906 19.2609 4.6875 17.9688 4.6875ZM17.9688 6.25C18.4 6.25 18.75 6.6 18.75 7.03125V14.0625H17.1875V7.03125C17.1875 6.6 17.5375 6.25 17.9688 6.25ZM32.0312 6.25C32.4625 6.25 32.8125 6.6 32.8125 7.03125V14.0625H31.25V7.03125C31.25 6.6 31.6 6.25 32.0312 6.25ZM11.7188 15.625H16.4062H19.5312H30.4688H33.5938H38.2812C38.7125 15.625 39.0625 15.975 39.0625 16.4062V23.114C39.0625 25.3625 37.7137 27.3562 35.6262 28.1921L32.724 29.3518C31.8287 29.7096 31.25 30.5636 31.25 31.5277V35.1562C31.25 35.5875 30.9 35.9375 30.4688 35.9375H28.125H21.875H19.5312C19.1 35.9375 18.75 35.5875 18.75 35.1562V31.5277C18.75 30.5636 18.1713 29.7066 17.276 29.3488L14.3738 28.1921C12.2863 27.3578 10.9375 25.364 10.9375 23.114V16.4062C10.9375 15.975 11.2875 15.625 11.7188 15.625ZM23.3002 18.689C23.1918 18.6948 23.0858 18.7244 22.9858 18.7744C22.789 18.876 22.6423 19.0547 22.5861 19.2688L20.7947 26.1139C20.6947 26.4998 20.8989 26.8994 21.2708 27.0416L23.4589 27.8809L21.7804 32.2571C21.646 32.6071 21.779 33.0016 22.0978 33.2001C22.2259 33.2798 22.3676 33.3191 22.5098 33.3191C22.7207 33.3191 22.9319 33.2329 23.0835 33.0688L28.7994 26.8951C28.976 26.7045 29.048 26.4387 28.9886 26.1871C28.9293 25.9356 28.7487 25.7255 28.5065 25.6317L27.179 25.1221L29.1199 21.8231C29.2355 21.6262 29.259 21.3857 29.184 21.17C29.109 20.9544 28.9433 20.7783 28.7292 20.697L23.6206 18.7378C23.5167 18.6987 23.4086 18.6831 23.3002 18.689ZM23.877 20.5109L27.3071 21.8262L25.3662 25.1282C25.2506 25.325 25.2271 25.5656 25.3021 25.7812C25.3787 25.9984 25.5458 26.1715 25.7599 26.2543L26.8707 26.6785L24.6918 29.0314L25.1984 27.713C25.2718 27.5193 25.2675 27.3039 25.1831 27.1149C25.0987 26.9258 24.9419 26.7763 24.7498 26.7029L22.4854 25.8331L23.877 20.5109ZM22.6562 37.5H27.3438V39.0625H26.5625H23.4375H22.6562V37.5ZM24.2188 40.625H25.7812V43.75H24.2188V40.625Z" fill="#FFC300"/>
</svg>
