<svg width="23" height="23" viewBox="0 0 23 23" fill="none" xmlns="http://www.w3.org/2000/svg">
<g clip-path="url(#clip0_54_153)">
<path d="M17.4886 12.8512C16.7354 14.3779 15.7148 15.8988 14.6711 17.2644C13.6811 18.5518 12.6225 19.7851 11.5 20.9587C10.3774 19.7851 9.31886 18.5518 8.32888 17.2644C7.28525 15.8988 6.26463 14.3779 5.51138 12.8512C4.7495 11.3088 4.3125 9.86413 4.3125 8.625C4.3125 6.71876 5.06975 4.89059 6.41767 3.54267C7.76559 2.19475 9.59376 1.4375 11.5 1.4375C13.4062 1.4375 15.2344 2.19475 16.5823 3.54267C17.9302 4.89059 18.6875 6.71876 18.6875 8.625C18.6875 9.86413 18.2491 11.3088 17.4886 12.8512ZM11.5 23C11.5 23 20.125 14.8264 20.125 8.625C20.125 6.33751 19.2163 4.14371 17.5988 2.5262C15.9813 0.908703 13.7875 0 11.5 0C9.21251 0 7.01871 0.908703 5.4012 2.5262C3.7837 4.14371 2.875 6.33751 2.875 8.625C2.875 14.8264 11.5 23 11.5 23Z" fill="#FFC300"/>
<path d="M11.5 11.5C10.7375 11.5 10.0062 11.1971 9.46707 10.6579C8.9279 10.1188 8.625 9.3875 8.625 8.625C8.625 7.8625 8.9279 7.13123 9.46707 6.59207C10.0062 6.0529 10.7375 5.75 11.5 5.75C12.2625 5.75 12.9938 6.0529 13.5329 6.59207C14.0721 7.13123 14.375 7.8625 14.375 8.625C14.375 9.3875 14.0721 10.1188 13.5329 10.6579C12.9938 11.1971 12.2625 11.5 11.5 11.5ZM11.5 12.9375C12.6437 12.9375 13.7406 12.4831 14.5494 11.6744C15.3581 10.8656 15.8125 9.76875 15.8125 8.625C15.8125 7.48125 15.3581 6.38435 14.5494 5.5756C13.7406 4.76685 12.6437 4.3125 11.5 4.3125C10.3563 4.3125 9.25935 4.76685 8.4506 5.5756C7.64185 6.38435 7.1875 7.48125 7.1875 8.625C7.1875 9.76875 7.64185 10.8656 8.4506 11.6744C9.25935 12.4831 10.3563 12.9375 11.5 12.9375Z" fill="#FFC300"/>
</g>
<defs>
<clipPath id="clip0_54_153">
<rect width="23" height="23" fill="white"/>
</clipPath>
</defs>
</svg>
