<svg width="50" height="50" viewBox="0 0 50 50" fill="none" xmlns="http://www.w3.org/2000/svg">
    <g clip-path="url(#clip0_45_210)">
        <path d="M44.4312 16.1748C44.3636 16.2136 44.3025 16.2626 44.25 16.3201C43.8261 16.6095 43.4634 16.9796 43.1826 17.4092C42.9018 17.8389 42.7084 18.3196 42.6135 18.824C42.5186 19.3284 42.524 19.8466 42.6295 20.3489C42.735 20.8511 42.9384 21.3277 43.2281 21.7514C43.3449 21.9225 43.525 22.0402 43.7287 22.0786C43.9323 22.117 44.1429 22.0729 44.314 21.9561C44.4852 21.8392 44.6029 21.6592 44.6413 21.4555C44.6797 21.2518 44.6356 21.0413 44.5187 20.8701C44.345 20.616 44.223 20.3302 44.1598 20.0289C44.0965 19.7277 44.0933 19.4169 44.1502 19.1144C44.207 18.8118 44.3229 18.5235 44.4913 18.2658C44.6596 18.008 44.8771 17.786 45.1312 17.6123C45.1515 17.5967 45.2015 17.5529 45.2484 17.5123C46.0326 17.0771 46.6431 16.3852 46.9774 15.553C47.3117 14.7207 47.3495 13.7988 47.0843 12.942C47.7728 12.7741 48.4016 12.4197 48.9017 11.9176C49.4017 11.4155 49.7536 10.7852 49.9187 10.0961C50.0838 9.40691 50.0556 8.6856 49.8373 8.01144C49.6189 7.33727 49.2189 6.73638 48.6812 6.27483C49.1196 5.54829 49.3085 4.6984 49.2193 3.85457C49.13 3.01073 48.7674 2.21918 48.1867 1.60045C47.606 0.981723 46.8391 0.569711 46.0026 0.427153C45.1661 0.284595 44.3059 0.419302 43.5531 0.810763C43.4588 0.855837 43.3745 0.919364 43.3053 0.997583C43.236 1.0758 43.1831 1.16712 43.1497 1.26614C43.1164 1.36517 43.1032 1.46987 43.111 1.57407C43.1189 1.67827 43.1475 1.77983 43.1953 1.87276C43.2431 1.96569 43.309 2.0481 43.3892 2.1151C43.4693 2.18209 43.5622 2.23233 43.6621 2.26282C43.762 2.29332 43.8671 2.30345 43.971 2.29263C44.0749 2.28181 44.1756 2.25025 44.2671 2.19983C44.8198 1.91541 45.4627 1.86213 46.0546 2.05172C46.6465 2.2413 47.1389 2.65821 47.4234 3.21076C47.6027 3.56567 47.6874 3.96089 47.669 4.35812C47.6507 4.75534 47.53 5.14109 47.3187 5.47795C46.828 5.31162 46.309 5.24501 45.7923 5.28204C45.2755 5.31907 44.7713 5.45899 44.3093 5.69358C44.2151 5.73865 44.1308 5.80218 44.0615 5.8804C43.9922 5.95861 43.9394 6.04994 43.906 6.14896C43.8726 6.24798 43.8595 6.35269 43.8673 6.45688C43.8751 6.56108 43.9038 6.66265 43.9515 6.75558C43.9993 6.84851 44.0652 6.93091 44.1454 6.99791C44.2256 7.06491 44.3184 7.11514 44.4183 7.14563C44.5183 7.17613 44.6233 7.18627 44.7273 7.17545C44.8312 7.16463 44.9319 7.13307 45.0234 7.08264C45.3663 6.90738 45.7469 6.8186 46.132 6.82405C46.517 6.8295 46.8949 6.929 47.2328 7.11389C47.6413 7.33693 47.9722 7.67923 48.1812 8.09514C48.3703 8.46247 48.4589 8.87324 48.438 9.28583C48.4172 9.69843 48.2877 10.0982 48.0626 10.4446C47.8375 10.791 47.5249 11.0718 47.1563 11.2585C46.7878 11.4452 46.3765 11.5311 45.964 11.5076C45.6458 11.4866 45.335 11.4022 45.05 11.2592C44.8645 11.1666 44.6499 11.1514 44.4533 11.2171C44.2566 11.2827 44.0941 11.4238 44.0015 11.6092C43.9089 11.7946 43.8937 12.0093 43.9594 12.2059C44.025 12.4025 44.1661 12.565 44.3515 12.6576C44.6923 12.8214 45.0549 12.935 45.4281 12.9951L45.4437 13.0201C45.7261 13.5734 45.7783 14.2158 45.5889 14.8073C45.3995 15.3989 44.9839 15.8916 44.4328 16.1779L44.4312 16.1748ZM19.0625 21.7826H19.0796C19.1823 21.7804 19.2834 21.758 19.3773 21.7166C19.4713 21.6753 19.5561 21.6159 19.6271 21.5417C19.6981 21.4676 19.7537 21.3802 19.7909 21.2845C19.828 21.1888 19.846 21.0868 19.8437 20.9842C19.8311 20.3634 20.0655 19.7629 20.4952 19.3147C20.925 18.8665 21.5151 18.6071 22.1359 18.5936C22.1884 18.5892 22.2405 18.5819 22.2921 18.5717C23.1892 18.6371 24.0812 18.3903 24.817 17.8731C25.5529 17.356 26.0873 16.6003 26.3296 15.7342C26.6019 15.8306 26.8838 15.8976 27.1703 15.9342C27.2921 15.9451 27.4125 15.9514 27.5328 15.9514C27.6719 15.9463 27.8106 15.9337 27.9484 15.9139C27.7984 16.565 27.797 17.2415 27.9444 17.8931C28.0917 18.5448 28.384 19.1549 28.7996 19.6781C29.2151 20.2013 29.7432 20.6241 30.3446 20.9151C30.946 21.2062 31.6053 21.3579 32.2734 21.3592C32.5051 21.3589 32.7365 21.3411 32.9656 21.3061C33.0687 21.2923 33.168 21.2582 33.2576 21.2056C33.3473 21.1529 33.4256 21.083 33.4879 20.9997C33.5502 20.9164 33.5953 20.8216 33.6204 20.7207C33.6456 20.6198 33.6503 20.5149 33.6344 20.4121C33.6185 20.3094 33.5822 20.2108 33.5277 20.1222C33.4733 20.0337 33.4016 19.9569 33.3171 19.8964C33.2325 19.8358 33.1367 19.7928 33.0353 19.7698C32.9339 19.7468 32.8289 19.7442 32.7265 19.7623C32.1184 19.8576 31.4957 19.7561 30.9492 19.4727C30.4028 19.1892 29.9611 18.7387 29.6887 18.1867C29.4163 17.6346 29.3273 17.01 29.4347 16.4039C29.5421 15.7978 29.8403 15.2418 30.2859 14.817C30.3031 14.7998 30.3187 14.7826 30.3375 14.7654C30.7566 14.3813 31.2802 14.1301 31.8421 14.0436C31.9435 14.0277 32.0408 13.992 32.1283 13.9385C32.2159 13.885 32.292 13.8148 32.3525 13.7319C32.4129 13.649 32.4564 13.5549 32.4805 13.4552C32.5046 13.3555 32.5088 13.252 32.4929 13.1506C32.477 13.0492 32.4413 12.952 32.3878 12.8644C32.3344 12.7769 32.2641 12.7007 32.1812 12.6403C32.0983 12.5798 32.0043 12.5363 31.9046 12.5122C31.8048 12.4881 31.7013 12.4839 31.6 12.4998C31.3831 12.5389 31.1695 12.5943 30.9609 12.6655C31.1301 11.9956 31.5444 11.4135 32.1218 11.0342C32.1312 11.0342 32.1359 11.0186 32.1453 11.0108C32.4865 10.7785 32.876 10.6267 33.2845 10.5669C33.6929 10.5071 34.1096 10.5408 34.5031 10.6655C34.8329 11.4632 35.3871 12.1482 36.0984 12.6373C36.27 12.7538 36.4808 12.7973 36.6844 12.7583C36.8881 12.7194 37.0679 12.6011 37.1843 12.4295C37.3008 12.258 37.3443 12.0472 37.3053 11.8435C37.2664 11.6399 37.1481 11.46 36.9765 11.3436C36.5668 11.0684 36.2346 10.6925 36.0119 10.2521C35.7891 9.8116 35.6833 9.3213 35.7044 8.82817C35.7256 8.33505 35.8731 7.85563 36.1328 7.43589C36.3925 7.01615 36.7556 6.67015 37.1875 6.43108L37.2265 6.41233C37.5178 6.25042 37.835 6.14044 38.164 6.08733C38.3642 6.05088 38.5423 5.93776 38.6604 5.77203C38.7785 5.6063 38.8272 5.40104 38.7963 5.19991C38.7653 4.99879 38.6571 4.81767 38.4947 4.6951C38.3323 4.57252 38.1284 4.51816 37.9265 4.54358C37.6318 4.58924 37.3424 4.66409 37.0625 4.76701C36.9236 4.58366 36.8319 4.36906 36.7953 4.14201C36.776 3.75416 36.8689 3.36897 37.0629 3.03255C37.2569 2.69614 37.5437 2.42276 37.889 2.24514C38.0475 2.12635 38.1549 1.95182 38.1896 1.75683C38.2243 1.56185 38.1836 1.36096 38.0758 1.19482C37.9681 1.02867 37.8012 0.909664 37.609 0.861862C37.4168 0.81406 37.2136 0.841033 37.0406 0.937325C36.4379 1.27518 35.9472 1.78199 35.6291 2.3953C35.3109 3.00861 35.1791 3.7016 35.25 4.38889C35.3191 4.81186 35.479 5.21484 35.7187 5.57014C35.4546 5.79141 35.2171 6.04256 35.0109 6.31858C34.446 7.09463 34.1497 8.03384 34.1671 8.99358C33.7928 8.95434 33.4149 8.96591 33.0437 9.02795C32.9437 9.04201 32.85 9.0842 32.7531 9.10451C32.7483 8.6423 32.6594 8.18483 32.4906 7.75451C32.1124 6.79072 31.3683 6.01566 30.4207 5.59851C29.4731 5.18136 28.399 5.15599 27.4328 5.52795C27.2397 5.60358 27.0845 5.75282 27.0014 5.94285C26.9184 6.13288 26.9142 6.34812 26.9898 6.54123C27.0654 6.73434 27.2147 6.8895 27.4047 6.97257C27.5947 7.05565 27.81 7.05983 28.0031 6.9842C28.2904 6.87304 28.5969 6.81963 28.9049 6.82702C29.2129 6.83441 29.5164 6.90245 29.7981 7.02726C30.0798 7.15207 30.3341 7.33119 30.5465 7.55437C30.7589 7.77756 30.9252 8.04043 31.0359 8.32795C31.2262 8.83009 31.234 9.38317 31.0578 9.89045C30.4788 10.3172 30.0142 10.8804 29.7054 11.53C29.3965 12.1796 29.253 12.8954 29.2875 13.6139L29.2703 13.6295L29.25 13.6483C29.1879 13.7013 29.1313 13.7604 29.0812 13.8248C28.8404 14.0313 28.5606 14.1873 28.2584 14.2837C27.9562 14.38 27.6377 14.4147 27.3218 14.3858C26.9104 14.3464 26.5173 14.1963 26.1843 13.9514C25.9237 13.7521 25.7023 13.5063 25.5312 13.2264C25.4795 13.1359 25.4101 13.0566 25.3273 12.9933C25.2444 12.93 25.1497 12.8839 25.0488 12.8577C24.9479 12.8316 24.8427 12.8259 24.7395 12.841C24.6364 12.8562 24.5373 12.8918 24.4481 12.9458C24.3589 12.9999 24.2814 13.0712 24.2203 13.1556C24.1591 13.2401 24.1154 13.3359 24.0919 13.4375C24.0683 13.5391 24.0653 13.6443 24.0831 13.7471C24.1008 13.8498 24.139 13.948 24.1953 14.0358C24.3944 14.3519 24.6351 14.6399 24.9109 14.892C24.9109 14.9029 24.9109 14.9123 24.9109 14.9248C24.8447 15.5421 24.5372 16.1082 24.0555 16.4998C23.5738 16.8913 22.9568 17.0767 22.339 17.0155C22.2612 17.0127 22.1834 17.0206 22.1078 17.0389C21.0728 17.0598 20.0885 17.4907 19.371 18.2369C18.6535 18.9831 18.2615 19.9836 18.2812 21.0186C18.2857 21.2228 18.37 21.4171 18.516 21.5599C18.6621 21.7027 18.8582 21.7827 19.0625 21.7826ZM10.1562 21.5811C10.3634 21.5811 10.5621 21.4988 10.7086 21.3523C10.8552 21.2057 10.9375 21.007 10.9375 20.7998C10.9375 20.5926 10.8552 20.3939 10.7086 20.2474C10.5621 20.1009 10.3634 20.0186 10.1562 20.0186C9.53461 20.0186 8.93847 19.7716 8.49893 19.3321C8.05939 18.8926 7.81246 18.2964 7.81246 17.6748C7.81246 17.0532 8.05939 16.4571 8.49893 16.0175C8.93847 15.578 9.53461 15.3311 10.1562 15.3311C10.3634 15.3311 10.5621 15.2488 10.7086 15.1023C10.8552 14.9557 10.9375 14.757 10.9375 14.5498C10.9375 14.3426 10.8552 14.1439 10.7086 13.9974C10.5621 13.8509 10.3634 13.7686 10.1562 13.7686C9.93543 13.7722 9.71536 13.7947 9.4984 13.8358C9.59201 13.522 9.75203 13.2321 9.96758 12.9856C10.1831 12.7391 10.4492 12.5419 10.7477 12.4074C11.0462 12.2728 11.3701 12.204 11.6975 12.2057C12.0249 12.2073 12.3482 12.2794 12.6453 12.417C12.8254 13.1328 13.2046 13.7829 13.739 14.292C13.8137 14.3643 13.902 14.4211 13.9988 14.4588C14.0956 14.4966 14.199 14.5147 14.3029 14.512C14.4068 14.5093 14.5092 14.4859 14.6039 14.4432C14.6986 14.4004 14.7839 14.3392 14.8547 14.2631C14.9255 14.187 14.9804 14.0976 15.0162 14C15.052 13.9024 15.0679 13.7987 15.0631 13.6948C15.0583 13.591 15.0328 13.4892 14.9882 13.3953C14.9435 13.3015 14.8806 13.2175 14.8031 13.1483C14.5667 12.9285 14.3787 12.6619 14.2512 12.3654C14.1236 12.069 14.0594 11.7491 14.0625 11.4264C14.0625 10.8048 14.3094 10.2086 14.7489 9.76911C15.1885 9.32957 15.7846 9.08264 16.4062 9.08264C16.6134 9.08264 16.8121 9.00033 16.9586 8.85382C17.1052 8.7073 17.1875 8.50859 17.1875 8.30139C17.1875 8.09419 17.1052 7.89547 16.9586 7.74896C16.8121 7.60245 16.6134 7.52014 16.4062 7.52014C16.2034 7.52457 16.0012 7.54494 15.8015 7.58108C15.6907 7.3138 15.6308 7.02817 15.625 6.73889C15.6256 6.32759 15.734 5.92365 15.9394 5.56727C16.1447 5.21089 16.4398 4.91451 16.7953 4.70764C16.8886 4.6588 16.9712 4.59158 17.0379 4.51002C17.1046 4.42846 17.1541 4.33425 17.1835 4.23306C17.2128 4.13186 17.2214 4.02578 17.2087 3.92118C17.196 3.81658 17.1623 3.71564 17.1095 3.62441C17.0568 3.53319 16.9862 3.45358 16.9019 3.39036C16.8176 3.32714 16.7214 3.28163 16.619 3.25657C16.5167 3.2315 16.4103 3.22739 16.3064 3.24449C16.2024 3.26159 16.1029 3.29955 16.014 3.35608C15.4214 3.70008 14.9293 4.19348 14.5868 4.78705C14.2444 5.38063 14.0636 6.05362 14.0625 6.73889C14.0716 7.21337 14.168 7.68211 14.3468 8.1217C13.8821 8.4115 13.4835 8.7958 13.1769 9.24964C12.8703 9.70349 12.6625 10.2167 12.5671 10.7561C11.9963 10.6155 11.4008 10.6079 10.8266 10.7339C10.2524 10.86 9.71478 11.1163 9.25532 11.483C8.79585 11.8498 8.4268 12.3172 8.17663 12.8492C7.92646 13.3812 7.80186 13.9636 7.81246 14.5514V14.5686C7.15595 15.0586 6.67072 15.7432 6.42584 16.525C6.18096 17.3068 6.18891 18.1459 6.44855 18.9229C6.70818 19.7 7.20629 20.3753 7.87196 20.8528C8.53764 21.3303 9.33698 21.5857 10.1562 21.5826V21.5811ZM16.9734 32.2405C16.8845 32.1892 16.7863 32.156 16.6845 32.1427C16.5827 32.1295 16.4793 32.1364 16.3802 32.1631C16.2811 32.1898 16.1883 32.2357 16.1069 32.2983C16.0256 32.361 15.9574 32.439 15.9062 32.528L13.4578 36.7686L11.0093 32.528C10.9582 32.439 10.89 32.361 10.8086 32.2983C10.7273 32.2357 10.6344 32.1898 10.5353 32.1631C10.4362 32.1364 10.3328 32.1295 10.231 32.1427C10.1293 32.156 10.0311 32.1892 9.94215 32.2405C8.8726 32.858 7.98457 33.7463 7.36741 34.816C6.75025 35.8858 6.42573 37.0992 6.42652 38.3342C6.42652 38.5414 6.50884 38.7401 6.65535 38.8866C6.80186 39.0331 7.00057 39.1155 7.20777 39.1155H12.1046L9.65621 43.353C9.55262 43.5324 9.52454 43.7456 9.57817 43.9458C9.63179 44.1459 9.76272 44.3165 9.94215 44.4201C11.011 45.0373 12.2235 45.3621 13.4578 45.3621C14.692 45.3621 15.9045 45.0373 16.9734 44.4201C17.1528 44.3165 17.2838 44.1459 17.3374 43.9458C17.391 43.7456 17.3629 43.5324 17.2593 43.353L14.8109 39.1123H19.7078C19.915 39.1123 20.1137 39.03 20.2602 38.8835C20.4067 38.737 20.489 38.5383 20.489 38.3311C20.4898 37.0961 20.1653 35.8826 19.5481 34.8129C18.931 33.7431 18.0429 32.8548 16.9734 32.2373V32.2405ZM8.04528 37.553C8.24613 36.1638 8.97338 34.9051 10.0765 34.0373L12.1078 37.553H8.04528ZM15.4875 43.4123C14.1819 43.9256 12.7305 43.9256 11.425 43.4123L13.4562 39.8967L15.4875 43.4123ZM14.8109 37.553L16.8421 34.0373C17.9453 34.9051 18.6725 36.1638 18.8734 37.553H14.8109ZM49.8765 46.917L48.8406 43.8123C46.9019 37.9984 45.9147 31.9097 45.9171 25.7811V24.2186C45.9168 24.0387 45.8545 23.8645 45.7406 23.7253C45.6267 23.5861 45.4683 23.4905 45.2921 23.4545C39.5168 22.2908 33.5674 22.2908 27.7921 23.4545C27.6157 23.4905 27.4571 23.5864 27.3432 23.7259C27.2293 23.8655 27.1671 24.04 27.1671 24.2201V25.7826C27.1666 31.0412 26.4373 36.2743 25 41.3326C23.5624 36.2738 22.8331 31.0402 22.8328 25.7811V25.7811V24.2186C22.8325 24.0387 22.7701 23.8645 22.6562 23.7253C22.5424 23.5861 22.384 23.4905 22.2078 23.4545C16.4325 22.2908 10.4831 22.2908 4.70777 23.4545C4.53131 23.4905 4.37271 23.5864 4.25882 23.7259C4.14493 23.8655 4.08274 24.04 4.08277 24.2201V25.7826C4.08419 31.9097 3.09648 37.9969 1.15778 43.8092L0.121838 46.9139C0.00424138 47.2661 -0.0279704 47.6413 0.0278567 48.0084C0.0836838 48.3756 0.225952 48.7242 0.442937 49.0255C0.659923 49.3269 0.945415 49.5724 1.27589 49.7418C1.60636 49.9112 1.97236 49.9996 2.34371 49.9998H47.6562C48.0277 49.9999 48.3939 49.9116 48.7246 49.7423C49.0552 49.573 49.3409 49.3276 49.5581 49.0262C49.7753 48.7248 49.9177 48.3761 49.9736 48.0088C50.0295 47.6415 49.9973 47.2663 49.8796 46.9139L49.8765 46.917ZM28.7296 25.7811V24.8686C33.8936 23.9072 39.1907 23.9072 44.3546 24.8686V25.7811C44.3546 26.5654 44.3703 27.3467 44.4015 28.1248H28.6828C28.714 27.3436 28.7296 26.5623 28.7296 25.7811ZM5.64684 25.7811V24.8686C10.8108 23.9072 16.1079 23.9072 21.2718 24.8686V25.7811C21.2718 26.5654 21.2875 27.3467 21.3187 28.1248H5.5984C5.62965 27.3436 5.64527 26.5623 5.64527 25.7811H5.64684ZM25.2062 48.1123C25.1338 48.2129 25.0386 48.2949 24.9282 48.3514C24.8179 48.4079 24.6958 48.4374 24.5718 48.4373H2.34371C2.21986 48.4375 2.09774 48.4082 1.98743 48.3519C1.87713 48.2955 1.78179 48.2138 1.7093 48.1133C1.6368 48.0129 1.58922 47.8967 1.57049 47.7743C1.55175 47.6518 1.56239 47.5267 1.60153 47.4092L2.63746 44.3045C4.21243 39.5743 5.17597 34.662 5.50465 29.6873H21.4062C21.7346 34.6616 22.6982 39.5733 24.2734 44.3029L25.3093 47.4076C25.35 47.5247 25.3619 47.6499 25.3439 47.7726C25.326 47.8952 25.2787 48.0118 25.2062 48.1123V48.1123ZM48.289 48.1123C48.2168 48.2127 48.1218 48.2945 48.0118 48.351C47.9017 48.4075 47.7799 48.4371 47.6562 48.4373H26.7734C26.9528 47.9466 26.9605 47.4096 26.7953 46.9139L25.8218 43.992C27.3384 39.358 28.2696 34.5524 28.5937 29.6873H44.5C44.8283 34.6614 45.7913 39.5731 47.3656 44.3029L48.4015 47.4076C48.4398 47.5261 48.4488 47.652 48.4279 47.7748C48.4069 47.8975 48.3566 48.0133 48.2812 48.1123H48.289ZM40.4109 32.242C40.322 32.1908 40.2238 32.1576 40.122 32.1443C40.0202 32.131 39.9168 32.1379 39.8177 32.1646C39.7186 32.1913 39.6257 32.2373 39.5444 32.2999C39.4631 32.3625 39.3949 32.4405 39.3437 32.5295L36.8953 36.7701L34.4468 32.5295C34.3957 32.4405 34.3275 32.3625 34.2461 32.2999C34.1648 32.2373 34.0719 32.1913 33.9728 32.1646C33.8737 32.1379 33.7703 32.131 33.6685 32.1443C33.5668 32.1576 33.4686 32.1908 33.3796 32.242C32.3101 32.8595 31.4221 33.7478 30.8049 34.8176C30.1877 35.8873 29.8632 37.1008 29.864 38.3358C29.864 38.543 29.9463 38.7417 30.0928 38.8882C30.2394 39.0347 30.4381 39.117 30.6453 39.117H35.5421L33.0937 43.353C32.9901 43.5324 32.962 43.7456 33.0157 43.9458C33.0693 44.1459 33.2002 44.3165 33.3796 44.4201C34.4485 45.0373 35.661 45.3621 36.8953 45.3621C38.1295 45.3621 39.342 45.0373 40.4109 44.4201C40.5903 44.3165 40.7213 44.1459 40.7749 43.9458C40.8285 43.7456 40.8004 43.5324 40.6968 43.353L38.2484 39.1123H43.1453C43.3525 39.1123 43.5512 39.03 43.6977 38.8835C43.8442 38.737 43.9265 38.5383 43.9265 38.3311C43.9273 37.0961 43.6028 35.8826 42.9856 34.8129C42.3685 33.7431 41.4804 32.8548 40.4109 32.2373V32.242ZM31.4828 37.5545C31.6836 36.1654 32.4109 34.9067 33.514 34.0389L35.5453 37.5545H31.4828ZM38.925 43.4139C37.6194 43.9272 36.168 43.9272 34.8625 43.4139L36.8937 39.8983L38.925 43.4139ZM38.2484 37.5545L40.2796 34.0389C41.3828 34.9067 42.11 36.1654 42.3109 37.5545H38.2484Z" fill="#FFC300"/>
    </g>
    <defs>
        <clipPath id="clip0_45_210">
            <rect width="50" height="50" fill="white"/>
        </clipPath>
    </defs>
</svg>
