<svg width="50" height="50" viewBox="0 0 50 50" fill="none" xmlns="http://www.w3.org/2000/svg">
<path d="M46.4785 34.1309C46.4785 35.449 45.4099 36.5176 44.0918 36.5176C42.7736 36.5176 41.7051 35.449 41.7051 34.1309C41.7051 32.8127 42.7736 31.7441 44.0918 31.7441C45.4099 31.7441 46.4785 32.8127 46.4785 34.1309Z" stroke="#FFC300" stroke-width="0.5"/>
<path d="M34.9551 17.7363C34.9551 18.6834 34.1873 19.4512 33.2402 19.4512C32.2932 19.4512 31.5254 18.6834 31.5254 17.7363C31.5254 16.7892 32.2932 16.0215 33.2402 16.0215C34.1873 16.0215 34.9551 16.7892 34.9551 17.7363Z" stroke="#FFC300" stroke-width="0.5"/>
<path d="M22.9434 35.8887C22.9434 36.9371 22.0934 37.7871 21.0449 37.7871C19.9964 37.7871 19.1465 36.9372 19.1465 35.8887C19.1465 34.8402 19.9964 33.9902 21.0449 33.9902C22.0934 33.9902 22.9434 34.8402 22.9434 35.8887Z" stroke="#FFC300" stroke-width="0.5"/>
<path d="M8.7832 14.0137C8.7832 15.0082 7.97697 15.8145 6.98242 15.8145C5.98788 15.8145 5.18164 15.0082 5.18164 14.0137C5.18164 13.0191 5.98788 12.2129 6.98242 12.2129C7.97697 12.2129 8.7832 13.0191 8.7832 14.0137Z" stroke="#FFC300" stroke-width="0.5"/>
<path d="M43.79 21.5547C43.7903 20.4357 43.3467 19.3622 42.5566 18.5699C41.7664 17.7775 40.6942 17.3309 39.5752 17.3281C39.368 17.3281 39.1693 17.4104 39.0228 17.5569C38.8763 17.7035 38.7939 17.9022 38.7939 18.1094C38.7939 18.3166 38.8763 18.5153 39.0228 18.6618C39.1693 18.8083 39.368 18.8906 39.5752 18.8906C40.2817 18.8933 40.9583 19.1766 41.456 19.6782C41.9537 20.1797 42.2317 20.8584 42.229 21.5649C42.2263 22.2715 41.943 22.948 41.4415 23.4457C40.9399 23.9434 40.2612 24.2215 39.5547 24.2188H3.22266C3.01546 24.2188 2.81674 24.3011 2.67023 24.4476C2.52372 24.5941 2.44141 24.7928 2.44141 25C2.44141 25.2072 2.52372 25.4059 2.67023 25.5524C2.81674 25.6989 3.01546 25.7812 3.22266 25.7812H39.5547C40.6764 25.7811 41.7523 25.3361 42.5463 24.5437C43.3403 23.7514 43.7876 22.6764 43.79 21.5547Z" fill="#FFC300"/>
<path d="M2.44141 20.8984C2.44141 21.1056 2.52372 21.3044 2.67023 21.4509C2.81674 21.5974 3.01546 21.6797 3.22266 21.6797H23.0088C23.4217 21.6787 23.8304 21.5964 24.2116 21.4375C24.5927 21.2786 24.9388 21.0462 25.2302 20.7535C25.5215 20.4608 25.7523 20.1136 25.9094 19.7318C26.0666 19.3499 26.147 18.9408 26.146 18.5278C26.145 18.1149 26.0627 17.7062 25.9038 17.325C25.7449 16.9439 25.5125 16.5978 25.2198 16.3065C24.9271 16.0151 24.5799 15.7843 24.1981 15.6272C23.8162 15.4701 23.4071 15.3897 22.9941 15.3906C22.7869 15.3906 22.5882 15.4729 22.4417 15.6195C22.2952 15.766 22.2129 15.9647 22.2129 16.1719C22.2129 16.3791 22.2952 16.5778 22.4417 16.7243C22.5882 16.8708 22.7869 16.9531 22.9941 16.9531C23.4171 16.9501 23.8239 17.115 24.1254 17.4116C24.427 17.7082 24.5985 18.1122 24.6025 18.5352C24.604 18.7443 24.5637 18.9517 24.484 19.145C24.4043 19.3384 24.2868 19.5139 24.1383 19.6613C23.9899 19.8086 23.8135 19.9249 23.6195 20.0032C23.4256 20.0814 23.2179 20.1202 23.0088 20.1172H3.22266C3.01546 20.1172 2.81674 20.1995 2.67023 20.346C2.52372 20.4925 2.44141 20.6912 2.44141 20.8984ZM30.5918 28.5156H3.22266C3.01546 28.5156 2.81674 28.5979 2.67023 28.7445C2.52372 28.891 2.44141 29.0897 2.44141 29.2969C2.44141 29.5041 2.52372 29.7028 2.67023 29.8493C2.81674 29.9958 3.01546 30.0781 3.22266 30.0781H30.5918C31.2967 30.0742 31.9743 30.35 32.4761 30.845C32.978 31.34 33.2629 32.0139 33.2686 32.7188C33.2718 33.0671 33.2055 33.4126 33.0734 33.7349C32.9414 34.0573 32.7463 34.3501 32.4996 34.596C32.2529 34.842 31.9596 35.0362 31.6369 35.1673C31.3141 35.2984 30.9684 35.3637 30.6201 35.3594C30.4129 35.3594 30.2142 35.4417 30.0677 35.5882C29.9212 35.7347 29.8389 35.9334 29.8389 36.1406C29.8389 36.3478 29.9212 36.5465 30.0677 36.6931C30.2142 36.8396 30.4129 36.9219 30.6201 36.9219C31.1742 36.9233 31.7231 36.8152 32.2352 36.6037C32.7473 36.3922 33.2126 36.0815 33.6042 35.6896C33.9958 35.2976 34.3061 34.8321 34.5172 34.3198C34.7282 33.8076 34.8359 33.2586 34.8341 32.7045C34.8322 32.1504 34.7208 31.6022 34.5063 31.0914C34.2918 30.5805 33.9784 30.1171 33.5841 29.7278C33.1899 29.3385 32.7225 29.031 32.209 28.823C31.6954 28.6149 31.1458 28.5105 30.5918 28.5156Z" fill="#FFC300"/>
<path d="M9.81445 14.0137C9.81445 13.4536 9.64836 12.906 9.33717 12.4403C9.02598 11.9746 8.58368 11.6116 8.06619 11.3972C7.54871 11.1829 6.97928 11.1268 6.42992 11.2361C5.88056 11.3453 5.37594 11.6151 4.97987 12.0111C4.58381 12.4072 4.31408 12.9118 4.20481 13.4612C4.09553 14.0105 4.15162 14.58 4.36597 15.0974C4.58032 15.6149 4.94331 16.0572 5.40903 16.3684C5.87476 16.6796 6.4223 16.8457 6.98242 16.8457C7.73327 16.8449 8.45313 16.5462 8.98406 16.0153C9.51499 15.4844 9.81363 14.7645 9.81445 14.0137ZM5.71289 14.0137C5.71289 13.7626 5.78735 13.5171 5.92685 13.3084C6.06634 13.0996 6.26462 12.9369 6.49659 12.8408C6.72857 12.7447 6.98383 12.7195 7.2301 12.7685C7.47636 12.8175 7.70257 12.9384 7.88012 13.116C8.05766 13.2935 8.17858 13.5197 8.22756 13.766C8.27655 14.0123 8.25141 14.2675 8.15532 14.4995C8.05923 14.7315 7.89651 14.9298 7.68774 15.0693C7.47896 15.2087 7.23351 15.2832 6.98242 15.2832C6.64584 15.2828 6.32316 15.1489 6.08516 14.9109C5.84716 14.6729 5.71328 14.3503 5.71289 14.0137ZM21.0449 32.959C20.4655 32.959 19.8991 33.1308 19.4173 33.4527C18.9355 33.7746 18.56 34.2322 18.3382 34.7675C18.1165 35.3029 18.0585 35.8919 18.1715 36.4602C18.2846 37.0285 18.5636 37.5505 18.9733 37.9603C19.383 38.37 19.9051 38.649 20.4734 38.7621C21.0417 38.8751 21.6307 38.8171 22.1661 38.5954C22.7014 38.3736 23.159 37.9981 23.4809 37.5163C23.8028 37.0345 23.9746 36.4681 23.9746 35.8887C23.9737 35.1119 23.6648 34.3673 23.1156 33.818C22.5663 33.2688 21.8217 32.9599 21.0449 32.959ZM21.0449 37.2559C20.7745 37.2559 20.5102 37.1757 20.2854 37.0254C20.0605 36.8752 19.8853 36.6617 19.7818 36.4119C19.6783 36.1621 19.6513 35.8872 19.704 35.6219C19.7568 35.3567 19.887 35.1131 20.0782 34.9219C20.2694 34.7307 20.513 34.6005 20.7782 34.5478C21.0434 34.495 21.3183 34.5221 21.5681 34.6256C21.8179 34.729 22.0315 34.9043 22.1817 35.1291C22.3319 35.3539 22.4121 35.6183 22.4121 35.8887C22.4117 36.2512 22.2676 36.5987 22.0112 36.855C21.7549 37.1113 21.4074 37.2555 21.0449 37.2559ZM44.0918 30.7129C43.4158 30.7129 42.755 30.9134 42.1929 31.2889C41.6308 31.6645 41.1927 32.1983 40.934 32.8229C40.6753 33.4474 40.6076 34.1347 40.7395 34.7977C40.8714 35.4607 41.1969 36.0697 41.6749 36.5477C42.1529 37.0257 42.762 37.3513 43.425 37.4832C44.088 37.615 44.7752 37.5473 45.3998 37.2887C46.0243 37.03 46.5582 36.5919 46.9337 36.0298C47.3093 35.4677 47.5098 34.8069 47.5098 34.1309C47.5087 33.2247 47.1483 32.3559 46.5075 31.7151C45.8668 31.0744 44.998 30.7139 44.0918 30.7129ZM44.0918 35.9863C43.7248 35.9863 43.3661 35.8775 43.061 35.6736C42.7558 35.4697 42.518 35.18 42.3776 34.8409C42.2371 34.5019 42.2004 34.1288 42.272 33.7689C42.3436 33.409 42.5203 33.0783 42.7798 32.8188C43.0393 32.5594 43.3699 32.3826 43.7298 32.311C44.0897 32.2395 44.4628 32.2762 44.8019 32.4166C45.1409 32.5571 45.4307 32.7949 45.6346 33.1C45.8384 33.4051 45.9473 33.7639 45.9473 34.1309C45.9467 34.6228 45.7511 35.0944 45.4032 35.4423C45.0554 35.7901 44.5837 35.9858 44.0918 35.9863ZM30.4941 17.7363C30.4941 18.2795 30.6552 18.8104 30.9569 19.262C31.2587 19.7136 31.6876 20.0655 32.1893 20.2734C32.6911 20.4812 33.2433 20.5356 33.776 20.4297C34.3087 20.3237 34.798 20.0622 35.182 19.6781C35.5661 19.2941 35.8276 18.8048 35.9336 18.2721C36.0395 17.7394 35.9851 17.1872 35.7773 16.6854C35.5694 16.1837 35.2175 15.7548 34.7659 15.453C34.3143 15.1513 33.7834 14.9902 33.2402 14.9902C32.5122 14.9911 31.8142 15.2806 31.2994 15.7955C30.7846 16.3103 30.495 17.0083 30.4941 17.7363ZM34.4238 17.7363C34.4238 17.9704 34.3544 18.1993 34.2244 18.3939C34.0943 18.5885 33.9095 18.7402 33.6932 18.8298C33.4769 18.9194 33.2389 18.9428 33.0093 18.8972C32.7797 18.8515 32.5688 18.7388 32.4033 18.5733C32.2378 18.4077 32.1251 18.1968 32.0794 17.9672C32.0337 17.7376 32.0572 17.4997 32.1467 17.2834C32.2363 17.0671 32.388 16.8823 32.5827 16.7522C32.7773 16.6222 33.0061 16.5527 33.2402 16.5527C33.554 16.5531 33.8549 16.6779 34.0768 16.8998C34.2987 17.1217 34.4235 17.4225 34.4238 17.7363Z" fill="#FFC300"/>
</svg>
