<svg width="50" height="50" viewBox="0 0 50 50" fill="none" xmlns="http://www.w3.org/2000/svg">
<g clip-path="url(#clip0_45_207)">
<path d="M2.34384 16.7499C2.71817 16.9366 3.05667 17.1879 3.34384 17.4921C3.48942 17.8794 3.5661 18.2892 3.57041 18.703C3.54637 19.1394 3.61081 19.5761 3.75983 19.9869C3.90885 20.3977 4.13939 20.7742 4.43759 21.0936C4.88656 21.4292 5.4409 21.5927 6.00009 21.5546C6.28134 21.5546 6.59384 21.5546 6.89853 21.4999C6.61039 22.7819 6.46627 24.0921 6.46884 25.4061C6.47751 28.0276 7.05965 30.6153 8.17443 32.988C9.2892 35.3606 10.9096 37.4605 12.922 39.1405C12.9644 39.1899 13.0145 39.2321 13.0704 39.2655C16.2777 41.9087 20.3049 43.3533 24.461 43.3514C25.5568 43.3548 26.6504 43.2528 27.7267 43.0468C28.6282 42.879 29.5141 42.636 30.3751 42.3202C30.7639 42.7201 31.2398 43.0249 31.7657 43.2108C31.5912 43.5099 31.497 43.849 31.4923 44.1952C31.5125 44.6096 31.6379 45.0121 31.8565 45.3647C32.0752 45.7173 32.38 46.0085 32.7423 46.2108C32.3167 46.6645 32.0649 47.2538 32.0313 47.8749C32.0304 48.1713 32.1086 48.4626 32.2579 48.7186C32.4534 49.0107 32.7225 49.2461 33.0379 49.4011C33.3534 49.556 33.7041 49.6252 34.0548 49.6014C34.8336 49.5775 35.5929 49.3513 36.2579 48.9452C36.4353 48.8408 36.5643 48.6707 36.617 48.4718C36.6696 48.2728 36.6417 48.0611 36.5392 47.8827C36.4361 47.704 36.2665 47.5733 36.0675 47.5192C35.8684 47.465 35.656 47.4918 35.4767 47.5936C35.0478 47.8596 34.5587 48.0128 34.0548 48.0389C33.7657 48.0389 33.6251 47.9608 33.5938 47.8749C33.6893 47.4504 33.9401 47.0769 34.297 46.828C35.3825 47.0425 36.5076 46.9226 37.5235 46.4843C37.5783 46.4674 37.6308 46.4438 37.6798 46.4139C37.7282 46.3937 37.7751 46.3702 37.8204 46.3436C38.2311 46.1534 38.5825 45.8553 38.837 45.4811C39.0916 45.1068 39.2397 44.6705 39.2657 44.2186C39.2866 43.8708 39.2166 43.5234 39.0626 43.2108C40.2423 42.7421 40.8985 42.0546 40.8985 41.2264C40.8941 40.8721 40.7733 40.5289 40.5548 40.2499C41.8048 39.7889 42.461 39.1405 42.461 38.3358C42.461 37.5311 41.8751 36.953 40.7267 36.4843H40.6251L40.2892 36.3514C40.1784 36.3283 40.064 36.3283 39.9532 36.3514H39.8126C38.8889 36.5496 37.9512 36.675 37.0079 36.7264C36.9052 36.7334 36.8049 36.7605 36.7128 36.8063C36.6206 36.8522 36.5384 36.9157 36.4709 36.9934C36.4034 37.0711 36.3519 37.1613 36.3194 37.259C36.2868 37.3566 36.2739 37.4597 36.2813 37.5624C36.2952 37.76 36.3836 37.9449 36.5286 38.0798C36.6737 38.2147 36.8645 38.2894 37.0626 38.2889H37.1173C38.0839 38.2343 39.045 38.1063 39.9923 37.9061C40.275 38.008 40.5389 38.1559 40.7735 38.3436C40.1594 38.7726 39.4477 39.0412 38.7032 39.1249H38.6017C38.3945 39.1249 38.1957 39.2072 38.0492 39.3537C37.9027 39.5002 37.8204 39.6989 37.8204 39.9061C37.8216 40.0686 37.8734 40.2266 37.9686 40.3582C38.0639 40.4899 38.1977 40.5885 38.3517 40.6405C38.6957 40.7418 39.0079 40.9302 39.2579 41.1874C39.2579 41.2811 38.8126 41.7264 37.4454 42.0155H37.3985C36.0461 42.2732 34.6572 42.2732 33.3048 42.0155H33.2579C31.8907 41.7264 31.4767 41.2811 31.4454 41.2343C31.4142 41.1874 31.6563 40.9608 32.2267 40.7264C32.836 40.828 33.4845 40.9061 34.172 40.953H34.2188C34.426 40.9592 34.6272 40.8829 34.7781 40.7408C34.929 40.5986 35.0173 40.4024 35.0235 40.1952C35.0297 39.988 34.9534 39.7868 34.8113 39.6359C34.6692 39.485 34.4729 39.3967 34.2657 39.3905C33.5918 39.3545 32.9211 39.2735 32.2579 39.1483C31.4388 39.085 30.6489 38.8163 29.961 38.3671C30.2075 38.1755 30.4849 38.0275 30.7813 37.9296C31.8122 38.1364 32.8565 38.2695 33.9063 38.328H33.9532C34.1604 38.328 34.3591 38.2457 34.5056 38.0992C34.6522 37.9527 34.7345 37.754 34.7345 37.5468C34.7345 37.3396 34.6522 37.1408 34.5056 36.9943C34.3591 36.8478 34.1604 36.7655 33.9532 36.7655C32.9551 36.7165 31.9624 36.5885 30.9845 36.3827H30.9063C30.7514 36.3331 30.5848 36.3331 30.4298 36.3827C29.0392 36.8671 28.3282 37.5311 28.3282 38.3749C28.3282 39.2186 28.9923 39.828 30.2423 40.2889C30.1114 40.4537 30.0133 40.642 29.9532 40.8436C29.123 41.1515 28.2684 41.3893 27.3985 41.5546C26.417 41.7382 25.4205 41.8297 24.422 41.828C21.1674 41.8316 17.9864 40.8601 15.2892 39.0389C16.816 38.5034 18.1389 37.5069 19.0751 36.1873C20.0113 34.8676 20.5147 33.2898 20.5157 31.6718C20.5216 31.0487 20.4534 30.4272 20.3126 29.8202C20.1747 29.1505 20.2341 28.4552 20.4837 27.8186C20.7334 27.1821 21.1624 26.6317 21.7188 26.2343C22.5055 25.6188 23.152 24.8428 23.6153 23.9579C24.0785 23.073 24.348 22.0996 24.4056 21.1025C24.4633 20.1053 24.3078 19.1073 23.9496 18.175C23.5914 17.2426 23.0387 16.3972 22.3282 15.6952C21.9782 15.3187 21.7073 14.8757 21.5315 14.3926C21.3557 13.9096 21.2786 13.3961 21.3048 12.8827C21.3109 11.6934 21.0095 10.5227 20.4298 9.48425C23.5455 8.68319 26.8296 8.83284 29.8595 9.91394C29.1955 10.8133 28.823 11.8945 28.7923 13.012C28.7615 14.1294 29.074 15.2295 29.6876 16.1639C29.749 16.2653 29.7814 16.3814 29.7814 16.4999C29.7814 16.6183 29.749 16.7345 29.6876 16.8358C29.2926 17.5743 29.1455 18.4203 29.2679 19.2488C29.3902 20.0773 29.7757 20.8446 30.3673 21.4374C30.9597 22.032 31.728 22.42 32.5582 22.5438C33.3884 22.6676 34.2365 22.5207 34.9767 22.1249C35.08 22.0613 35.199 22.0276 35.3204 22.0276C35.4418 22.0276 35.5608 22.0613 35.6642 22.1249C36.5483 22.7047 37.5834 23.0117 38.6407 23.0077C39.3182 23.0144 39.9911 22.8952 40.6251 22.6561C40.9323 24.3927 40.9323 26.1696 40.6251 27.9061C38.8978 27.551 37.1385 27.3756 35.3751 27.3827C30.3282 27.3827 25.2188 28.7264 25.2188 31.2889C25.2188 32.3514 26.1017 33.203 27.4923 33.8358C27.2777 33.9851 27.1014 34.1831 26.978 34.4135C26.8546 34.644 26.7874 34.9004 26.7821 35.1617C26.7768 35.4231 26.8334 35.682 26.9473 35.9173C27.0612 36.1526 27.2292 36.3576 27.4376 36.5155C27.5809 36.6457 27.7674 36.7181 27.961 36.7186C28.1185 36.7182 28.2723 36.6702 28.402 36.5809C28.5317 36.4916 28.6315 36.3651 28.6881 36.2181C28.7447 36.0711 28.7555 35.9104 28.7192 35.7572C28.6828 35.6039 28.601 35.4652 28.4845 35.3593C28.4315 35.313 28.3843 35.2605 28.3438 35.203C28.3438 35.1171 28.6251 34.828 29.4376 34.5077C31.1949 34.9383 32.9956 35.1663 34.8048 35.1874H35.9376C37.7467 35.1659 39.5474 34.9378 41.3048 34.5077C42.086 34.828 42.3751 35.1249 42.3985 35.1874C42.3864 35.2195 42.3678 35.2487 42.3438 35.2733C42.2125 35.4313 42.1487 35.6347 42.1662 35.8394C42.1838 36.0442 42.2813 36.2337 42.4376 36.3671C42.5771 36.4864 42.7541 36.5527 42.9376 36.5546C43.0504 36.5546 43.1619 36.5301 43.2644 36.4829C43.3669 36.4357 43.458 36.3669 43.5313 36.2811C43.8011 35.9829 43.9537 35.5972 43.961 35.1952C43.9524 34.9297 43.884 34.6696 43.7609 34.4343C43.6378 34.1989 43.4632 33.9943 43.2501 33.8358C44.6407 33.203 45.5235 32.3514 45.5235 31.2889C45.5235 29.9686 44.1563 28.9452 42.1485 28.3124C42.3132 27.3392 42.3968 26.3541 42.3985 25.3671C42.3981 24.0291 42.2487 22.6954 41.9532 21.3905C41.3253 18.65 40.065 16.0945 38.273 13.9281C36.481 11.7617 34.2071 10.0445 31.6329 8.91394L31.547 8.87488C29.3095 7.90935 26.898 7.41216 24.461 7.41394C23.5797 7.41145 22.6995 7.47674 21.8282 7.60925L21.5626 7.44519C21.1866 7.2612 20.8476 7.00961 20.5626 6.703C20.4061 6.3098 20.3215 5.89172 20.3126 5.46863C20.3368 5.04257 20.2761 4.61595 20.1339 4.21359C19.9917 3.81122 19.771 3.44114 19.4845 3.12488C19.0366 2.78657 18.4821 2.62023 17.922 2.65613C17.6329 2.65613 17.3282 2.65613 17.0235 2.71082C16.597 2.78429 16.161 2.78429 15.7345 2.71082C15.3847 2.46262 15.0829 2.15289 14.8438 1.79675C14.6082 1.436 14.3019 1.12677 13.9433 0.887757C13.5848 0.64874 13.1815 0.484896 12.7579 0.406128H12.6329C11.7983 0.512328 11.0328 0.924317 10.4845 1.56238C10.196 1.8569 9.8574 2.09764 9.48447 2.27332C9.06696 2.29606 8.64877 2.24312 8.25009 2.11707C7.43099 1.82953 6.53415 1.85738 5.73447 2.19519C5.40632 2.46493 5.1351 2.79724 4.9366 3.17279C4.7381 3.54834 4.61627 3.95962 4.57822 4.38269C4.51846 4.80407 4.37786 5.20995 4.16416 5.578C3.85901 5.83691 3.50597 6.03334 3.12509 6.15613C2.69865 6.26615 2.29887 6.46128 1.9498 6.7298C1.60072 6.99832 1.30957 7.33468 1.09384 7.71863C1.00562 7.9534 0.960625 8.2022 0.961031 8.453C1.00554 9.08289 1.17835 9.69702 1.46884 10.2577C1.65648 10.6137 1.78073 10.9997 1.83603 11.3983C1.72859 11.8086 1.5458 12.1954 1.29697 12.5389C0.864314 13.1101 0.594349 13.7877 0.515719 14.4999C0.514139 14.6501 0.532529 14.7998 0.570406 14.9452C0.728767 15.3502 0.967557 15.7189 1.27236 16.0291C1.57716 16.3393 1.94166 16.5845 2.34384 16.7499ZM33.3595 43.6405H33.422C33.4452 43.6444 33.469 43.6444 33.4923 43.6405C34.0095 43.7211 34.5315 43.7681 35.0548 43.7811H35.4142C35.7892 43.7811 36.1563 43.7811 36.5235 43.7264H36.8829C37.0704 43.7264 37.2579 43.6874 37.4376 43.6561C37.5271 43.7207 37.602 43.8035 37.6572 43.8991C37.7124 43.9948 37.7467 44.101 37.7579 44.2108C37.7579 44.4921 37.4767 44.8046 37.0313 44.9921C36.198 45.3715 35.2579 45.4462 34.3751 45.203H34.2188C34.1827 45.1751 34.1433 45.1515 34.1017 45.1327C33.4767 44.8983 33.0548 44.5155 33.0548 44.1718C33.0691 44.066 33.1049 43.9643 33.1599 43.873C33.215 43.7816 33.2883 43.7025 33.3751 43.6405H33.3595ZM35.3829 33.6483C32.0626 33.6483 30.2188 32.8671 29.9142 32.4764C30.1954 32.1014 32.0392 31.3046 35.3829 31.3046C38.7267 31.3046 40.547 32.0858 40.8517 32.4764C40.5626 32.8514 38.7188 33.6483 35.3985 33.6483H35.3829ZM43.9767 31.3046C43.9767 31.6405 43.4376 32.0858 42.4142 32.5311C42.4142 32.5311 42.4142 32.5311 42.4142 32.4764C42.4142 30.3202 37.9923 29.7421 35.3829 29.7421C32.7735 29.7421 28.3517 30.3202 28.3517 32.4764C28.3517 32.4764 28.3517 32.4764 28.3517 32.5311C27.3204 32.1014 26.7892 31.6405 26.7892 31.3046C26.7892 30.5233 29.8204 28.9608 35.3829 28.9608C40.9454 28.9608 43.9923 30.5077 43.9923 31.3046H43.9767ZM31.3985 10.5389C33.5623 11.551 35.479 13.0234 37.0147 14.8532C38.5503 16.683 39.6678 18.8261 40.2892 21.1327C39.697 21.3968 39.0485 21.5094 38.402 21.4603C37.7556 21.4112 37.1315 21.202 36.586 20.8514C36.25 20.6243 35.858 20.4939 35.4529 20.4747C35.0478 20.4554 34.6452 20.5479 34.2892 20.7421C33.8442 20.9756 33.3359 21.0599 32.8393 20.9825C32.3428 20.9051 31.8842 20.6702 31.5313 20.3124C31.1761 19.9577 30.9441 19.4982 30.8695 19.0018C30.795 18.5053 30.8818 17.998 31.1173 17.5546C31.3067 17.202 31.398 16.8049 31.3815 16.405C31.365 16.0051 31.2414 15.6169 31.0235 15.2811C30.5552 14.5597 30.3381 13.7038 30.4059 12.8464C30.4737 11.9889 30.8226 11.1778 31.3985 10.5389ZM21.2423 16.7889C21.7984 17.3337 22.2318 17.9909 22.5136 18.7166C22.7953 19.4423 22.9188 20.2198 22.8759 20.9971C22.833 21.7744 22.6247 22.5335 22.2648 23.2238C21.905 23.9141 21.4018 24.5196 20.7892 24.9999C19.9947 25.5817 19.3859 26.3814 19.0365 27.302C18.6871 28.2227 18.612 29.2249 18.8204 30.1874C18.9366 30.6603 18.9943 31.1457 18.9923 31.6327C18.9901 33.1113 18.4637 34.5412 17.5068 35.6683C16.5499 36.7954 15.2243 37.5468 13.7657 37.7889C11.5898 35.9244 9.94177 33.521 8.98663 30.8194C8.0315 28.1177 7.80275 25.2126 8.32328 22.3947C8.84382 19.5769 10.0954 16.9452 11.9527 14.763C13.81 12.5809 16.2079 10.9249 18.9063 9.96082C19.4693 10.8374 19.7702 11.8565 19.7735 12.8983C19.7473 13.6162 19.8659 14.3321 20.1223 15.0032C20.3787 15.6743 20.7675 16.287 21.2657 16.8046L21.2423 16.7889ZM5.68759 12.1014C5.6903 10.7357 6.14032 9.40835 6.96881 8.32254C7.79731 7.23673 8.95867 6.4522 10.2753 6.08894C11.5919 5.72568 12.9912 5.80369 14.2593 6.31104C15.5273 6.81839 16.5943 7.72715 17.297 8.89832C13.4665 10.5771 10.3359 13.5311 8.43759 17.2577C7.59812 16.6847 6.91104 15.9156 6.43593 15.0171C5.96081 14.1186 5.71199 13.1178 5.71103 12.1014H5.68759ZM2.89072 9.6405C2.69872 9.2718 2.57185 8.87271 2.51572 8.46082C2.50623 8.41179 2.50623 8.3614 2.51572 8.31238C2.62509 8.04675 3.21884 7.79675 3.69541 7.59363C4.32506 7.39574 4.89828 7.0502 5.36728 6.58582C5.75564 6.0328 6.00732 5.39558 6.10166 4.72644C6.21103 4.24207 6.34384 3.63269 6.56259 3.49207C7.01134 3.42113 7.47073 3.46411 7.89853 3.61707C8.5368 3.80575 9.20794 3.85636 9.86728 3.7655C10.4959 3.54792 11.0637 3.1837 11.5235 2.703C11.8907 2.37488 12.3595 1.92175 12.6563 1.92175C12.8985 1.92175 13.3204 2.42957 13.6251 2.78113C14.0359 3.33303 14.5713 3.78007 15.1876 4.08582C15.8336 4.28929 16.517 4.34535 17.1876 4.24988C17.4454 4.24988 17.6954 4.203 17.9688 4.203C18.336 4.203 18.461 4.2655 18.5079 4.30457C18.7188 4.48425 18.7735 5.08582 18.8126 5.62488C18.8114 6.28804 18.9694 6.94179 19.2735 7.53113C19.4015 7.72661 19.5568 7.90286 19.7345 8.05457L19.0392 8.25769L18.836 8.328C18.263 7.28212 17.458 6.38132 16.483 5.69463C15.5079 5.00795 14.3886 4.55362 13.2107 4.36645C12.0329 4.17928 10.8279 4.26425 9.68798 4.61484C8.54808 4.96543 7.50357 5.57234 6.6345 6.38905C5.76544 7.20576 5.09489 8.21059 4.67424 9.32655C4.25359 10.4425 4.09401 11.6399 4.20773 12.8271C4.32145 14.0143 4.70546 15.1596 5.33031 16.1754C5.95517 17.1912 6.80429 18.0505 7.81259 18.6874C7.65634 19.0858 7.50009 19.4686 7.36728 19.9061L6.75791 19.9452C6.50009 19.9452 6.25009 19.9921 5.97666 19.9921C5.60947 19.9921 5.48447 19.9296 5.43759 19.8905C5.22666 19.7186 5.17197 19.1093 5.13291 18.5702C5.13806 17.9084 4.9854 17.2549 4.68759 16.6639C4.2748 16.1258 3.73899 15.6945 3.12509 15.4061C2.69541 15.1483 2.14853 14.828 2.07822 14.5077C2.17514 14.0927 2.35592 13.7018 2.60947 13.3593C3.00967 12.8138 3.27717 12.1825 3.39072 11.5155C3.3946 11.4687 3.3946 11.4217 3.39072 11.3749C3.34376 10.7688 3.17362 10.1786 2.89072 9.6405Z" fill="#FFC300"/>
<path d="M25.4453 34.453C25.5429 34.4204 25.6331 34.3688 25.7108 34.3012C25.7884 34.2336 25.8519 34.1514 25.8976 34.0592C25.9433 33.967 25.9704 33.8667 25.9773 33.764C25.9841 33.6613 25.9706 33.5583 25.9375 33.4608C25.9049 33.3632 25.8533 33.273 25.7857 33.1954C25.7181 33.1177 25.6359 33.0542 25.5437 33.0085C25.4515 32.9628 25.3512 32.9357 25.2485 32.9289C25.1458 32.922 25.0428 32.9355 24.9453 32.9686C22.5469 33.7499 21.3359 34.8514 21.3359 36.0936C21.3359 37.5467 22.9766 38.7577 26.0703 39.5858C26.1378 39.5935 26.2059 39.5935 26.2734 39.5858C26.4498 39.5918 26.623 39.538 26.7649 39.433C26.9068 39.328 27.0089 39.1781 27.0547 39.0077C27.082 38.9087 27.0894 38.8053 27.0767 38.7034C27.064 38.6015 27.0313 38.5031 26.9805 38.4138C26.9297 38.3246 26.8618 38.2462 26.7807 38.1832C26.6996 38.1202 26.6069 38.0739 26.5078 38.0467C23.6797 37.2655 22.9297 36.4217 22.9297 36.0702C22.9297 35.7186 23.4375 35.1561 25.4453 34.453ZM45.8516 32.9686C45.6547 32.9023 45.4396 32.9169 45.2535 33.0092C45.0675 33.1015 44.9257 33.264 44.8594 33.4608C44.7931 33.6576 44.8077 33.8728 44.9 34.0588C44.9923 34.2449 45.1547 34.3867 45.3516 34.453C47.3594 35.1327 47.8984 35.828 47.8984 36.1249C47.8984 36.4217 47.5078 36.9061 46.4063 37.3827C46.248 37.4593 46.1202 37.587 46.0435 37.7452C45.9669 37.9034 45.9458 38.0829 45.9838 38.2545C46.0217 38.4262 46.1164 38.58 46.2527 38.6912C46.3889 38.8023 46.5586 38.8643 46.7344 38.867C46.8479 38.8711 46.9606 38.8469 47.0625 38.7967C48.625 38.0624 49.4609 37.1639 49.4609 36.1249C49.4609 34.8514 48.25 33.7889 45.8516 32.9686Z" fill="#FFC300"/>
</g>
<defs>
<clipPath id="clip0_45_207">
<rect width="50" height="50" fill="white"/>
</clipPath>
</defs>
</svg>
